<?xml version="1.0" encoding="utf-8"?>
<!-- Generator: Adobe Illustrator 17.0.0, SVG Export Plug-In . SVG Version: 6.00 Build 0)  -->
<!DOCTYPE svg PUBLIC "-//W3C//DTD SVG 1.0//EN" "http://www.w3.org/TR/2001/REC-SVG-20010904/DTD/svg10.dtd">
<svg version="1.0" id="Layer_1" xmlns="http://www.w3.org/2000/svg" xmlns:xlink="http://www.w3.org/1999/xlink" x="0px" y="0px"
	 width="300px" height="300px" viewBox="0 0 300 300" enable-background="new 0 0 300 300" xml:space="preserve">
<g id="Layer_1_1_" display="none">
	<g id="Layer_2" display="inline">
	</g>
	<g display="inline">
		<polygon fill="#585857" points="159.676,179.493 171.401,179.493 159.676,157.767 		"/>
		<polygon fill="#585857" points="187.928,179.493 200.33,179.493 187.928,157.767 		"/>
	</g>
	<g display="inline">
		<path fill="#6F6F6E" d="M267.398,232.256c0.011-0.143,0.022-0.286,0.022-0.432V68.176c0-2.955-2.396-5.351-5.351-5.351h-74.282
			v21.666c15.378,4.114,26.85,20.129,26.85,39.277H200.33v21.538h-11.725v-21.538h-17.204v21.538h-11.725v-21.538h-14.308
			c0-19.148,11.472-35.163,26.85-39.277V62.825H97.935c-2.957,0-5.351,2.396-5.351,5.351v163.647c0,2.955,2.394,5.351,5.351,5.351
			h74.282V218.77c-15.23-4.074-26.622-19.826-26.84-38.728h-0.015l0.004-22.087h14.308v9.813l11.725,11.725v-21.538h16.502v21.538
			h12.427v-21.538h14.278l52.526,75.532C267.263,233.092,267.363,232.685,267.398,232.256z"/>
		<path fill="#585857" d="M214.634,179.493c0,19.146-11.472,35.163-26.85,39.279v18.404h74.284c2.372,0,4.364-1.551,5.065-3.689
			l-52.526-75.532v21.538H214.634z"/>
	</g>
</g>
<g id="Layer_2_1_">
	<g id="Layer_2_2_">
	</g>
	<g>
		<g>
			<path fill="#68AB6A" d="M154.37,152.944"/>
			<path fill="#DDDDDD" d="M232.919,69.506h-71.1v17.615c14.719,3.939,25.699,19.27,25.699,37.595h-66.297l-0.001-0.001
				c0-18.325,10.98-33.655,25.7-37.593V69.508H75.821c-2.83,0-5.121,2.293-5.121,5.121v156.632c0,2.828,2.291,5.121,5.121,5.121
				h71.098v-20.737c-14.719-3.938-25.699-19.266-25.699-37.593h13.695v-20.615h11.223v20.615h16.466v-7.733v-12.881l0,0h11.223
				v20.615h13.693c0,18.327-10.98,33.656-25.699,37.593v20.737h71.098c2.828,0,5.121-2.293,5.121-5.121v-73.824v-82.81
				C238.041,71.799,235.748,69.506,232.919,69.506z"/>
		</g>
		<g>
			<path fill="#1E90FF" d="M131.287,188.865c0-0.828,0.672-1.5,1.5-1.5h43.167c0.828,0,1.5,0.672,1.5,1.5l0,0
				c0,0.828-0.672,1.5-1.5,1.5h-43.167C131.958,190.365,131.287,189.694,131.287,188.865L131.287,188.865z"/>
			<path fill="#1E90FF" d="M137.287,196.866c0-0.828,0.672-1.5,1.5-1.5h31.166c0.828,0,1.5,0.672,1.5,1.5l0,0
				c0,0.828-0.672,1.5-1.5,1.5h-31.166C137.959,198.366,137.287,197.694,137.287,196.866L137.287,196.866z"/>
			<path fill="#1E90FF" d="M141.288,204.866c0-0.828,0.672-1.5,1.5-1.5h23.165c0.828,0,1.5,0.672,1.5,1.5l0,0
				c0,0.828-0.672,1.5-1.5,1.5h-23.165C141.959,206.366,141.288,205.695,141.288,204.866L141.288,204.866z"/>
		</g>
		<g>
			<path fill="#1E90FF" d="M177.454,114.86c0,0.828-0.672,1.5-1.5,1.5h-43.167c-0.828,0-1.5-0.672-1.5-1.5l0,0
				c0-0.828,0.672-1.5,1.5-1.5h43.167C176.782,113.36,177.454,114.032,177.454,114.86L177.454,114.86z"/>
			<path fill="#1E90FF" d="M171.453,106.86c0,0.828-0.672,1.5-1.5,1.5h-31.166c-0.828,0-1.5-0.672-1.5-1.5l0,0
				c0-0.828,0.672-1.5,1.5-1.5h31.166C170.782,105.36,171.453,106.032,171.453,106.86L171.453,106.86z"/>
			<path fill="#1E90FF" d="M167.453,98.859c0,0.828-0.672,1.5-1.5,1.5h-23.165c-0.828,0-1.5-0.672-1.5-1.5l0,0
				c0-0.828,0.672-1.5,1.5-1.5h23.165C166.781,97.359,167.453,98.031,167.453,98.859L167.453,98.859z"/>
		</g>
	</g>
</g>
<path fill="#CCCCCC" d="M232.919,69.506h-71.1v17.615c14.719,3.939,25.699,19.27,25.699,37.595H121.22l41.384,32.722h11.223v20.615
	h13.693c0,18.327-10.98,33.656-25.699,37.593v20.737h71.098c2.828,0,5.121-2.293,5.121-5.121v-73.824v-82.81
	C238.041,71.799,235.748,69.506,232.919,69.506z"/>
<polygon fill="#CCCCCC" points="146.138,178.052 162.604,178.052 162.604,170.319 146.138,157.437 "/>
</svg>
