<?xml version="1.0" encoding="utf-8"?>
<!-- Generator: Adobe Illustrator 17.0.0, SVG Export Plug-In . SVG Version: 6.00 Build 0)  -->
<!DOCTYPE svg PUBLIC "-//W3C//DTD SVG 1.0//EN" "http://www.w3.org/TR/2001/REC-SVG-20010904/DTD/svg10.dtd">
<svg version="1.0" id="Layer_4" xmlns="http://www.w3.org/2000/svg" xmlns:xlink="http://www.w3.org/1999/xlink" x="0px" y="0px"
	 width="300px" height="300px" viewBox="0 0 300 300" enable-background="new 0 0 300 300" xml:space="preserve">
<g>
	<g>
		
			<linearGradient id="SVGID_1_" gradientUnits="userSpaceOnUse" x1="-665.3038" y1="-263.2094" x2="-391.1662" y2="10.9282" gradientTransform="matrix(-1 0 0 -1 -248.8059 153.34)">
			<stop  offset="0.5765" style="stop-color:#FFFFFF"/>
			<stop  offset="1" style="stop-color:#E7E7E7"/>
		</linearGradient>
		<polygon fill="url(#SVGID_1_)" points="63.449,221.323 67.158,217.614 217.935,217.614 217.935,66.837 221.272,63.501 
			310.449,163.218 310.449,310.501 163.796,310.501 		"/>
	</g>
	<g>
		<g>
			<g>
				<rect x="69.007" y="69.001" fill="#D8D8D8" width="146.822" height="146.823"/>
				<path fill="#FFFFFF" d="M212.329,72.501l0.001,139.823H72.507V72.501H212.329 M219.329,65.501H65.507v153.823H219.33
					L219.329,65.501L219.329,65.501z"/>
			</g>
			<path fill="#BABABA" d="M217.33,67.501v149.823H67.507V67.501H217.33 M221.33,63.501h-0.001H63.507v157.823H221.33V63.501
				L221.33,63.501z"/>
		</g>
	</g>
	
		<rect x="91.601" y="92.711" fill="#0099FF" stroke="#FFFFFF" stroke-width="4" stroke-miterlimit="10" width="23.454" height="23.454"/>
	
		<rect x="130.694" y="92.711" fill="#0073BF" stroke="#FFFFFF" stroke-width="4" stroke-miterlimit="10" width="23.454" height="23.454"/>
	
		<rect x="169.787" y="92.711" fill="#66C2FF" stroke="#FFFFFF" stroke-width="4" stroke-miterlimit="10" width="23.454" height="23.454"/>
	
		<rect x="91.601" y="131.804" fill="#0099FF" stroke="#FFFFFF" stroke-width="4" stroke-miterlimit="10" width="23.454" height="23.454"/>
	
		<rect x="130.694" y="131.804" fill="#0073BF" stroke="#FFFFFF" stroke-width="4" stroke-miterlimit="10" width="23.454" height="23.454"/>
	
		<rect x="169.787" y="131.804" fill="#66C2FF" stroke="#FFFFFF" stroke-width="4" stroke-miterlimit="10" width="23.454" height="23.454"/>
	
		<rect x="91.601" y="170.897" fill="#0099FF" stroke="#FFFFFF" stroke-width="4" stroke-miterlimit="10" width="23.454" height="23.454"/>
	
		<rect x="130.694" y="170.897" fill="#0073BF" stroke="#FFFFFF" stroke-width="4" stroke-miterlimit="10" width="23.454" height="23.454"/>
	
		<rect x="169.787" y="170.897" fill="#66C2FF" stroke="#FFFFFF" stroke-width="4" stroke-miterlimit="10" width="23.454" height="23.454"/>
</g>
</svg>
