<?xml version="1.0" encoding="utf-8"?>
<!-- Generator: Adobe Illustrator 17.0.0, SVG Export Plug-In . SVG Version: 6.00 Build 0)  -->
<!DOCTYPE svg PUBLIC "-//W3C//DTD SVG 1.0//EN" "http://www.w3.org/TR/2001/REC-SVG-20010904/DTD/svg10.dtd">
<svg version="1.0" id="Layer_4" xmlns="http://www.w3.org/2000/svg" xmlns:xlink="http://www.w3.org/1999/xlink" x="0px" y="0px"
	 width="300px" height="300px" viewBox="0 0 300 300" enable-background="new 0 0 300 300" xml:space="preserve">
<path id="wrench-20-icon" fill="#F8C49C" d="M160.347,191.407c-4.968-5.12-12.671-5.504-26.685-6.432
	c-2.13-0.141-3.439,1.225-3.618,3.295c-0.04,0.465-3.409,31.331-3.409,31.331s20.801,14.054,29.342,19.748
	c7.922-14.303,20.097-15.165,29.195-22.356L160.347,191.407z M148.27,178.803c10.85-0.001,12.489-15.368,2.252-17.186
	c-38.498-6.839-36.475-6.618-37.745-6.618c-4.727,0-8.823,3.374-9.738,8.023l-3.326,29.384c-0.45,4.694,1.074,8.756,4.712,11.402
	c3.629,2.64,15.088,10.791,15.088,10.791s2.441-21.109,3.128-27.181c0.688-6.071,4.098-10.259,10.598-9.941
	C133.928,177.511,147.087,178.803,148.27,178.803z"/>
<path fill="#F8C49C" d="M167.985,139.747l10.196-15.293c2.608-3.909,7.891-4.967,11.8-2.359c3.91,2.606,4.967,7.89,2.361,11.8
	l-10.196,15.293c-2.607,3.91-7.891,4.967-11.8,2.361C166.435,148.941,165.377,143.657,167.985,139.747z"/>
<path fill="#F8C49C" d="M153.975,134.658c3.916,2.611,9.209,1.553,11.82-2.364l10.297-15.443c2.611-3.917,1.552-9.21-2.366-11.823
	c-3.915-2.611-9.209-1.552-11.819,2.365l-10.296,15.444C148.999,126.754,150.057,132.046,153.975,134.658z"/>
<path fill="#F8C49C" d="M206.152,164.055l-9.019,13.527c-2.399,3.598-1.427,8.459,2.171,10.858s8.459,1.427,10.858-2.171
	l9.018-13.529c2.4-3.598,1.427-8.46-2.172-10.857C213.41,159.484,208.55,160.457,206.152,164.055z"/>
<path fill="#F8C49C" d="M183.285,157.804c-2.598,3.898-1.546,9.165,2.353,11.763c3.898,2.599,9.164,1.545,11.763-2.353l9.771-14.656
	c2.6-3.897,1.546-9.165-2.353-11.764c-3.897-2.598-9.164-1.545-11.762,2.353L183.285,157.804z"/>
<g>
	<path fill="#D3A37F" d="M175.471,111.491c-0.212-1.862-1.209-3.622-2.891-4.743c-1.884-1.256-4.18-1.413-6.133-0.622
		L175.471,111.491z"/>
	<path fill="#FFDFC2" d="M153.248,123.739c-1.958,3.02-1.132,7.061,1.873,9.065c3.028,2.019,7.12,1.201,9.139-1.828l0.329-0.494
		L153.248,123.739z"/>
</g>
<g>
	<path fill="#D3A37F" d="M191.795,128.294c-0.212-1.862-1.209-3.622-2.891-4.743c-1.884-1.256-4.18-1.413-6.133-0.622
		L191.795,128.294z"/>
	<path fill="#FFDFC2" d="M169.812,140.302c-1.958,3.02-1.132,7.061,1.873,9.065c3.028,2.019,7.12,1.201,9.139-1.828l0.329-0.494
		L169.812,140.302z"/>
</g>
<g>
	<path fill="#D3A37F" d="M206.363,147.381c-0.212-1.862-1.209-3.622-2.891-4.743c-1.884-1.256-4.18-1.413-6.133-0.622
		L206.363,147.381z"/>
	<path fill="#FFDFC2" d="M185.235,158.534c-1.958,3.02-1.132,7.061,1.873,9.065c3.028,2.019,7.12,1.201,9.139-1.828l0.329-0.494
		L185.235,158.534z"/>
</g>
<g>
	<path fill="#D3A37F" d="M219.032,168.068c-0.212-1.862-1.209-3.622-2.891-4.743c-1.884-1.256-4.18-1.413-6.133-0.622
		L219.032,168.068z"/>
	<path fill="#FFDFC2" d="M198.564,177.853c-1.958,3.02-1.132,7.061,1.873,9.065c3.028,2.019,7.12,1.201,9.139-1.828l0.329-0.494
		L198.564,177.853z"/>
</g>
<path fill="#FFDFC2" d="M147.822,176.718c3.554,0.571,6.917-1.816,7.537-5.374c0.624-3.585-1.777-6.998-5.362-7.622l-0.585-0.102
	L147.822,176.718z"/>
<path fill="#D3A37F" d="M109.636,156.682c-5.874,2.827-4.896,6.269-4.896,6.269l11.806-5.79
	C116.545,157.161,112.539,155.284,109.636,156.682z"/>
<g>
	<path fill="#D3A37F" d="M165.902,124.821c-0.039,0.064-0.124,0.085-0.188,0.045l-7.938-4.853c-0.064-0.039-0.085-0.124-0.045-0.188
		l0,0c0.039-0.064,0.124-0.085,0.188-0.045l7.938,4.853C165.921,124.673,165.942,124.757,165.902,124.821L165.902,124.821z"/>
	<path fill="#D3A37F" d="M165.404,125.782c-0.039,0.064-0.124,0.085-0.188,0.045l-7.938-4.853c-0.064-0.039-0.085-0.124-0.045-0.188
		l0,0c0.039-0.064,0.124-0.085,0.188-0.045l7.938,4.853C165.423,125.633,165.444,125.717,165.404,125.782L165.404,125.782z"/>
	<path fill="#D3A37F" d="M164.808,126.692c-0.039,0.064-0.124,0.085-0.188,0.045l-7.938-4.853c-0.064-0.039-0.085-0.124-0.045-0.188
		l0,0c0.039-0.064,0.124-0.085,0.188-0.045l7.938,4.853C164.827,126.543,164.847,126.627,164.808,126.692L164.808,126.692z"/>
	<path fill="#D3A37F" d="M164.31,127.652c-0.039,0.064-0.124,0.085-0.188,0.045l-7.938-4.853c-0.064-0.039-0.085-0.124-0.045-0.188
		l0,0c0.039-0.064,0.124-0.085,0.188-0.045l7.938,4.853C164.329,127.503,164.349,127.587,164.31,127.652L164.31,127.652z"/>
</g>
<g>
	<path fill="#D3A37F" d="M182.656,141.632c-0.039,0.064-0.124,0.085-0.188,0.045l-7.938-4.853c-0.064-0.039-0.085-0.124-0.045-0.188
		l0,0c0.039-0.064,0.124-0.085,0.188-0.045l7.938,4.853C182.675,141.483,182.696,141.568,182.656,141.632L182.656,141.632z"/>
	<path fill="#D3A37F" d="M182.158,142.592c-0.039,0.064-0.124,0.085-0.188,0.045l-7.938-4.853c-0.064-0.039-0.085-0.124-0.045-0.188
		l0,0c0.039-0.064,0.124-0.085,0.188-0.045l7.938,4.853C182.177,142.444,182.197,142.528,182.158,142.592L182.158,142.592z"/>
	<path fill="#D3A37F" d="M181.562,143.502c-0.039,0.064-0.124,0.085-0.188,0.045l-7.938-4.853c-0.064-0.039-0.085-0.124-0.045-0.188
		l0,0c0.039-0.064,0.124-0.085,0.188-0.045l7.938,4.853C181.581,143.354,181.601,143.438,181.562,143.502L181.562,143.502z"/>
	<path fill="#D3A37F" d="M181.063,144.462c-0.039,0.064-0.124,0.085-0.188,0.045l-7.938-4.853c-0.064-0.039-0.085-0.124-0.045-0.188
		l0,0c0.039-0.064,0.124-0.085,0.188-0.045l7.938,4.853C181.083,144.314,181.103,144.398,181.063,144.462L181.063,144.462z"/>
</g>
<g>
	<path fill="#D3A37F" d="M145.843,174.636c-0.075-0.009-0.129-0.076-0.121-0.151l1.047-9.245c0.008-0.075,0.076-0.129,0.151-0.121
		l0,0c0.075,0.008,0.129,0.076,0.121,0.151l-1.047,9.245C145.986,174.59,145.918,174.644,145.843,174.636L145.843,174.636z"/>
	<path fill="#D3A37F" d="M144.762,174.59c-0.075-0.009-0.129-0.076-0.121-0.151l1.047-9.245c0.008-0.075,0.076-0.129,0.151-0.121
		l0,0c0.075,0.009,0.129,0.076,0.121,0.151l-1.047,9.245C144.905,174.544,144.837,174.598,144.762,174.59L144.762,174.59z"/>
	<path fill="#D3A37F" d="M143.685,174.433c-0.075-0.008-0.129-0.076-0.121-0.151l1.047-9.245c0.008-0.075,0.076-0.129,0.151-0.121
		l0,0c0.075,0.008,0.129,0.076,0.121,0.151l-1.047,9.245C143.828,174.388,143.76,174.442,143.685,174.433L143.685,174.433z"/>
	<path fill="#D3A37F" d="M142.605,174.387c-0.075-0.008-0.129-0.076-0.121-0.151l1.047-9.245c0.008-0.075,0.076-0.129,0.151-0.121
		l0,0c0.075,0.008,0.129,0.076,0.121,0.151l-1.047,9.245C142.747,174.342,142.68,174.396,142.605,174.387L142.605,174.387z"/>
</g>
<g>
	<path fill="#D3A37F" d="M197.794,159.468c-0.039,0.064-0.124,0.085-0.188,0.045l-7.938-4.853c-0.064-0.039-0.085-0.124-0.045-0.188
		l0,0c0.039-0.064,0.124-0.085,0.188-0.045l7.938,4.853C197.813,159.319,197.834,159.404,197.794,159.468L197.794,159.468z"/>
	<path fill="#D3A37F" d="M197.296,160.428c-0.039,0.064-0.124,0.085-0.188,0.045l-7.938-4.853c-0.064-0.039-0.085-0.124-0.045-0.188
		l0,0c0.039-0.064,0.124-0.085,0.188-0.045l7.938,4.853C197.315,160.28,197.335,160.364,197.296,160.428L197.296,160.428z"/>
	<path fill="#D3A37F" d="M196.699,161.338c-0.039,0.064-0.124,0.085-0.188,0.045l-7.938-4.853c-0.064-0.039-0.085-0.124-0.045-0.188
		l0,0c0.039-0.064,0.124-0.085,0.188-0.045l7.938,4.853C196.719,161.189,196.739,161.274,196.699,161.338L196.699,161.338z"/>
	<path fill="#D3A37F" d="M196.201,162.298c-0.039,0.064-0.124,0.085-0.188,0.045l-7.938-4.853c-0.064-0.039-0.085-0.124-0.045-0.188
		l0,0c0.039-0.064,0.124-0.085,0.188-0.045l7.938,4.853C196.22,162.15,196.241,162.234,196.201,162.298L196.201,162.298z"/>
</g>
<g>
	<path fill="#D3A37F" d="M211.246,178.936c-0.039,0.064-0.124,0.085-0.188,0.045l-7.938-4.853c-0.064-0.039-0.085-0.124-0.045-0.188
		l0,0c0.039-0.064,0.124-0.085,0.188-0.045l7.938,4.853C211.265,178.787,211.285,178.872,211.246,178.936L211.246,178.936z"/>
	<path fill="#D3A37F" d="M210.748,179.896c-0.039,0.064-0.124,0.085-0.188,0.045l-7.938-4.853c-0.064-0.039-0.085-0.124-0.045-0.188
		l0,0c0.039-0.064,0.124-0.085,0.188-0.045l7.938,4.853C210.767,179.748,210.787,179.832,210.748,179.896L210.748,179.896z"/>
	<path fill="#D3A37F" d="M210.151,180.806c-0.039,0.064-0.124,0.085-0.188,0.045l-7.938-4.853c-0.064-0.039-0.085-0.124-0.045-0.188
		l0,0c0.039-0.064,0.124-0.085,0.188-0.045l7.938,4.853C210.17,180.657,210.19,180.742,210.151,180.806L210.151,180.806z"/>
	<path fill="#D3A37F" d="M209.653,181.766c-0.039,0.064-0.124,0.085-0.188,0.045l-7.938-4.853c-0.064-0.039-0.085-0.124-0.045-0.188
		l0,0c0.039-0.064,0.124-0.085,0.188-0.045l7.938,4.853C209.672,181.618,209.692,181.702,209.653,181.766L209.653,181.766z"/>
</g>
<path fill="#C5C5C5" d="M230.279,201.304l-4.205-4.205l-8.566-8.566c-11.911,18.249-32.482,3.773-28.725-9.796
	c-9.324-1.832-15.318-9.907-13.321-17.65c-8.076,0-17.483-9.158-15.644-17.948c-10.226,0.393-22.702-10.232-13.446-25.741
	l-0.204-0.204c-3.414-3.413-5.584-7.824-6.271-12.528c-0.007-0.045-0.018-0.089-0.024-0.134
	c-4.687,15.09-16.708,26.941-31.891,31.412c2.341,0.281,4.611,0.941,6.735,1.928c2.334,1.084,4.49,2.566,6.35,4.425l7.875,7.876
	l22.891,4.066c12.964,2.302,16.9,17.76,8.8,26.717l38.721,39.51l5.823,5.941c6.932,6.932,18.172,6.932,25.104,0
	C237.209,219.475,237.209,208.237,230.279,201.304z M216.861,220.089c-4.04,0-7.316-3.276-7.316-7.317
	c0-4.04,3.276-7.315,7.316-7.315c4.041,0,7.316,3.276,7.316,7.315C224.176,216.814,220.902,220.089,216.861,220.089z"/>
<path fill="#D9D9D9" d="M139.872,104.533c-0.196-1.402-0.266-2.829-0.19-4.265c0.548-10.283-3.104-20.747-10.959-28.602
	c-10.524-10.524-25.732-13.505-38.913-8.947l23.93,23.93c0.549,9.335-13.886,23.769-23.221,23.22l-23.93-23.93
	c-4.558,13.181-1.577,28.389,8.947,38.913c7.854,7.855,18.318,11.506,28.602,10.958c1.292-0.069,2.576-0.019,3.842,0.133
	C123.164,131.473,135.186,119.622,139.872,104.533z"/>
<circle fill="#D9D9D9" cx="217.081" cy="213.47" r="12.692"/>
<polygon fill="#FFFFFF" points="209.478,215.507 211.515,207.905 219.118,205.867 224.684,211.433 222.647,219.036 215.044,221.073 
	"/>
<path fill="#0099FF" d="M119.549,300l30.522-42.097c1.565-2.275,0.99-5.388-1.285-6.953L90.74,211.01
	c-2.275-1.565-5.388-0.99-6.953,1.285L20.197,300H119.549z"/>
<path fill="#0073BF" d="M150.074,257.782c-1.565,2.275-4.678,2.85-6.953,1.285l-58.046-39.94c-2.275-1.565-2.85-4.678-1.285-6.953
	l3.873-5.629c1.565-2.275,4.678-2.85,6.953-1.285l58.046,39.94c2.275,1.565,2.85,4.678,1.285,6.953L150.074,257.782z"/>
<path fill="#B1B1B0" d="M137.729,113.139c1.074-2.791,1.782-5.632,2.168-8.472c-0.007-0.045-0.018-0.089-0.024-0.134
	c-4.687,15.09-16.708,26.941-31.891,31.412c2.341,0.281,4.611,0.941,6.735,1.928C124.915,133.603,133.558,123.978,137.729,113.139z"
	/>
</svg>
