<?xml version="1.0" encoding="utf-8"?>
<!-- Generator: Adobe Illustrator 17.0.0, SVG Export Plug-In . SVG Version: 6.00 Build 0)  -->
<!DOCTYPE svg PUBLIC "-//W3C//DTD SVG 1.0//EN" "http://www.w3.org/TR/2001/REC-SVG-20010904/DTD/svg10.dtd">
<svg version="1.0" id="Layer_4" xmlns="http://www.w3.org/2000/svg" xmlns:xlink="http://www.w3.org/1999/xlink" x="0px" y="0px"
	 width="300px" height="300px" viewBox="0 0 300 300" enable-background="new 0 0 300 300" xml:space="preserve">
<g>
	<g>
		<path id="cursor-touch-icon" fill="#1E90FF" d="M113.883,78.41l-7.358,4.559L93.037,61.197l7.358-4.559L113.883,78.41z
			 M129.981,51.12l-8.641-0.487l-1.44,25.572l8.642,0.485L129.981,51.12z M98.46,95.328l3.412-7.954L78.336,77.276l-3.412,7.953
			L98.46,95.328z"/>
	</g>
</g>
<g>
	<polygon fill="#DDDDDD" points="116.905,91.358 203.703,152.018 168.828,169.233 192.421,217.029 170.74,227.731 147.147,179.936 
		117.085,194.775 	"/>
	<polygon fill="#BBBBBB" points="168.828,169.233 147.147,179.936 172.985,177.654 	"/>
</g>
<polygon fill="#CCCCCC" points="117.14,91.358 157.988,174.585 203.703,152.018 "/>
</svg>
