<?xml version="1.0" encoding="utf-8"?>
<!-- Generator: Adobe Illustrator 17.0.0, SVG Export Plug-In . SVG Version: 6.00 Build 0)  -->
<!DOCTYPE svg PUBLIC "-//W3C//DTD SVG 1.0//EN" "http://www.w3.org/TR/2001/REC-SVG-20010904/DTD/svg10.dtd">
<svg version="1.0" id="Layer_1" xmlns="http://www.w3.org/2000/svg" xmlns:xlink="http://www.w3.org/1999/xlink" x="0px" y="0px"
	 width="300px" height="300px" viewBox="0 0 300 300" enable-background="new 0 0 300 300" xml:space="preserve">
<linearGradient id="SVGID_1_" gradientUnits="userSpaceOnUse" x1="327.4432" y1="263.5817" x2="172.9559" y2="147.1671">
	<stop  offset="0.2449" style="stop-color:#FFFFFF"/>
	<stop  offset="1" style="stop-color:#E8E8E8"/>
</linearGradient>
<polygon fill="url(#SVGID_1_)" points="300,300 300,125.777 223.688,79.843 150.001,246.994 255.844,300 "/>
<g>
	<rect x="149.999" y="53.006" fill="#CCCCCC" width="0.001" height="56.994"/>
	<rect x="149.999" y="186.023" fill="#CCCCCC" width="0.001" height="60.97"/>
	<polygon fill="#CCCCCC" points="140.258,154.86 122.494,137.092 140.257,154.861 	"/>
	<path fill="#DDDDDD" d="M140.258,154.86l9.742-9.742V110V53.005c0,0,0.001,0.001,0.001,0.001v-0.002
		c-27.245,23.163-45.281,26.839-73.689,26.839c0,0,0,55.053,0,90.652c0,24.51,11.657,37.088,33.01,51.282
		c11.052,7.347,24.698,15.126,40.678,25.218v-60.97v-14.132v-0.421l0.001-0.001v-0.001l-9.742,9.744l-30.937-30.944l13.172-13.175
		L140.258,154.86z"/>
	
		<rect x="138.241" y="149.989" transform="matrix(-0.7071 0.7071 -0.7071 -0.7071 353.8088 153.4263)" fill="#CCCCCC" width="13.776" height="0.001"/>
	<path fill="#CCCCCC" d="M150.001,53.006V110v35.118l-0.001,0.001v0l31.268-31.268l13.178,13.17l-44.445,44.448v0.421v14.133v60.971
		c0,0-0.001,0-0.001-0.001v0.003c46.852-29.591,73.689-39.304,73.689-76.501c0-35.6,0-90.652,0-90.652
		C195.28,79.843,177.244,76.168,150.001,53.006z"/>
	<rect x="149.999" y="171.891" fill="#CCCCCC" width="0.001" height="14.132"/>
	<rect x="149.999" y="171.47" fill="#CCCCCC" width="0.002" height="0.421"/>
	<polygon fill="#CCCCCC" points="149.999,145.118 149.999,145.119 150.001,145.118 150.001,110 149.999,110 	"/>
	<g>
		<polygon fill="#1E90FF" points="105.786,150.267 122.494,133.556 140.257,151.324 181.267,110.316 197.981,127.021 
			140.258,184.748 		"/>
		<path fill="#FFFFFF" d="M181.267,113.851l13.178,13.17l-44.445,44.448v-0.001l-9.742,9.744l-30.937-30.944l13.172-13.175
			l17.763,17.769l0.001-0.001l0.001,0.001l9.741-9.741v0L181.267,113.851 M181.266,106.781l-3.535,3.535l-31.268,31.268
			l-6.206,6.206l-14.228-14.233l-3.536-3.537l-3.536,3.537l-13.172,13.175l-3.534,3.535l3.534,3.535l30.937,30.944l3.536,3.537
			l3.536-3.536l3.14-3.14l6.602-6.602l44.445-44.448l3.536-3.537l-3.538-3.535l-13.178-13.17L181.266,106.781L181.266,106.781z"/>
	</g>
</g>
</svg>
