<?xml version="1.0" encoding="utf-8"?>
<!-- Generator: Adobe Illustrator 17.0.0, SVG Export Plug-In . SVG Version: 6.00 Build 0)  -->
<!DOCTYPE svg PUBLIC "-//W3C//DTD SVG 1.0//EN" "http://www.w3.org/TR/2001/REC-SVG-20010904/DTD/svg10.dtd">
<svg version="1.0" id="Layer_1" xmlns="http://www.w3.org/2000/svg" xmlns:xlink="http://www.w3.org/1999/xlink" x="0px" y="0px"
	 width="200px" height="200px" viewBox="0 0 200 200" enable-background="new 0 0 200 200" xml:space="preserve">
<g>
	<g>
		<defs>
			<circle id="SVGID_1_" cx="100" cy="121.182" r="77.557"/>
		</defs>
		<use xlink:href="#SVGID_1_"  overflow="visible" fill="#FFFFFF"/>
		<clipPath id="SVGID_2_">
			<use xlink:href="#SVGID_1_"  overflow="visible"/>
		</clipPath>
		<g clip-path="url(#SVGID_2_)">
			<path fill="#FFC49A" d="M37.369,240.251l64.195-63c1.487-1.804,1.229-4.472-0.575-5.958l-46.035-37.931
				c-1.804-1.487-4.472-1.229-5.959,0.575l-95.421,99.047L37.369,240.251z"/>
			<path fill="#F1B290" d="M101.575,177.148c-1.487,1.804-4.154,2.062-5.959,0.575l-46.035-37.931
				c-1.804-1.487-2.062-4.154-0.575-5.959l3.679-4.465c1.487-1.804,4.154-2.062,5.959-0.575l46.035,37.931
				c1.804,1.487,2.062,4.154,0.575,5.959L101.575,177.148z"/>
		</g>
	</g>
	<g>
		<path id="wrench-20-icon" fill="#FFC49A" d="M115.095,121.918c-3.816-4.682-10.285-5.569-22.036-7.377
			c-1.786-0.275-2.99,0.782-3.293,2.514c-0.068,0.389-5.167,26.175-5.167,26.175s16.516,13.375,23.303,18.802
			c7.727-11.484,18.059-11.321,26.258-16.72L115.095,121.918z M105.83,110.405c9.151,0.793,11.658-12.048,3.157-14.33
			c-31.969-8.584-30.28-8.25-31.351-8.343c-3.987-0.346-7.688,2.2-8.8,6.054l-4.954,24.54c-0.723,3.926,0.266,7.464,3.141,9.961
			c2.868,2.492,11.936,10.205,11.936,10.205s3.603-17.625,4.627-22.696c1.024-5.07,4.207-8.353,9.665-7.61
			C93.828,108.266,104.832,110.319,105.83,110.405z"/>
		<path fill="#FFC49A" d="M125.314,78.906l9.718-12.153c2.485-3.106,7.018-3.612,10.125-1.127c3.108,2.484,3.612,7.018,1.128,10.125
			l-9.718,12.153c-2.485,3.107-7.019,3.612-10.125,1.128C123.335,86.547,122.829,82.014,125.314,78.906z"/>
		<path fill="#FFC49A" d="M113.871,73.59c3.112,2.489,7.653,1.983,10.142-1.129l9.814-12.272c2.489-3.113,1.982-7.654-1.131-10.144
			c-3.111-2.489-7.653-1.983-10.141,1.13l-9.813,12.272C110.252,66.559,110.757,71.1,113.871,73.59z"/>
		<path fill="#FFC49A" d="M155.727,102.2l-8.596,10.75c-2.286,2.859-1.822,7.03,1.037,9.317c2.859,2.287,7.03,1.822,9.317-1.037
			l8.596-10.751c2.287-2.859,1.823-7.031-1.038-9.316C162.184,98.876,158.013,99.34,155.727,102.2z"/>
		<path fill="#FFC49A" d="M136.898,95.255c-2.476,3.098-1.974,7.617,1.125,10.093c3.098,2.477,7.616,1.974,10.093-1.124
			l9.313-11.646c2.478-3.097,1.974-7.617-1.124-10.094c-3.097-2.476-7.616-1.974-10.093,1.125L136.898,95.255z"/>
		<g>
			<path fill="#E3A37E" d="M133.695,55.622c-0.043-1.586-0.755-3.143-2.091-4.212c-1.497-1.197-3.422-1.497-5.127-0.974
				L133.695,55.622z"/>
			<path fill="#FFDFC1" d="M114.056,64.327c-1.872,2.404-1.471,5.873,0.916,7.782c2.406,1.924,5.917,1.533,7.841-0.873l0.314-0.393
				L114.056,64.327z"/>
		</g>
		<g>
			<path fill="#E3A37E" d="M146.234,70.988c-0.043-1.586-0.755-3.143-2.091-4.212c-1.497-1.197-3.422-1.497-5.127-0.974
				L146.234,70.988z"/>
			<path fill="#FFDFC1" d="M126.815,79.509c-1.872,2.404-1.471,5.873,0.916,7.782c2.406,1.924,5.917,1.533,7.841-0.873l0.314-0.393
				L126.815,79.509z"/>
		</g>
		<g>
			<path fill="#E3A37E" d="M157.125,88.152c-0.043-1.586-0.755-3.143-2.091-4.212c-1.497-1.197-3.422-1.497-5.127-0.974
				L157.125,88.152z"/>
			<path fill="#FFDFC1" d="M138.489,96.013c-1.872,2.404-1.471,5.873,0.916,7.782c2.406,1.924,5.917,1.533,7.841-0.873l0.314-0.393
				L138.489,96.013z"/>
		</g>
		<g>
			<path fill="#E3A37E" d="M166.297,106.527c-0.043-1.586-0.755-3.143-2.091-4.212c-1.497-1.197-3.422-1.497-5.127-0.974
				L166.297,106.527z"/>
			<path fill="#FFDFC1" d="M148.319,113.282c-1.872,2.404-1.471,5.873,0.916,7.782c2.406,1.924,5.917,1.533,7.841-0.873l0.314-0.393
				L148.319,113.282z"/>
		</g>
		<path fill="#FFDFC1" d="M105.605,108.613c2.955,0.742,5.967-1.025,6.75-3.981c0.789-2.978-0.987-6.033-3.965-6.821l-0.486-0.129
			L105.605,108.613z"/>
		<path fill="#E3A37E" d="M74.864,88.922c-5.161,1.955-4.588,4.929-4.588,4.929l10.381-4.02
			C80.656,89.831,77.415,87.955,74.864,88.922z"/>
		<g>
			<path fill="#E3A37E" d="M124.65,66.166c-0.038,0.051-0.11,0.062-0.162,0.025l-6.34-4.674c-0.051-0.038-0.062-0.11-0.024-0.162
				l0,0c0.038-0.051,0.11-0.062,0.162-0.025l6.34,4.674C124.677,66.042,124.688,66.114,124.65,66.166L124.65,66.166z"/>
			<path fill="#E3A37E" d="M124.16,66.939c-0.038,0.051-0.11,0.062-0.162,0.025l-6.34-4.674c-0.051-0.038-0.062-0.11-0.024-0.162
				l0,0c0.038-0.051,0.11-0.062,0.162-0.025l6.34,4.674C124.187,66.815,124.198,66.888,124.16,66.939L124.16,66.939z"/>
			<path fill="#E3A37E" d="M123.59,67.663c-0.038,0.051-0.11,0.062-0.162,0.024l-6.34-4.674c-0.051-0.038-0.062-0.11-0.025-0.162
				l0,0c0.038-0.051,0.11-0.062,0.162-0.025l6.34,4.674C123.617,67.539,123.628,67.611,123.59,67.663L123.59,67.663z"/>
			<path fill="#E3A37E" d="M123.1,68.436c-0.038,0.051-0.11,0.062-0.162,0.024l-6.34-4.674c-0.051-0.038-0.062-0.11-0.024-0.162l0,0
				c0.038-0.051,0.11-0.062,0.162-0.025l6.34,4.674C123.127,68.312,123.137,68.385,123.1,68.436L123.1,68.436z"/>
		</g>
		<g>
			<path fill="#E3A37E" d="M137.551,81.57c-0.038,0.051-0.11,0.062-0.162,0.024l-6.34-4.674c-0.051-0.038-0.062-0.11-0.024-0.162
				l0,0c0.038-0.051,0.11-0.062,0.162-0.025l6.34,4.674C137.578,81.446,137.589,81.518,137.551,81.57L137.551,81.57z"/>
			<path fill="#E3A37E" d="M137.06,82.343c-0.038,0.051-0.11,0.062-0.162,0.025l-6.34-4.674c-0.051-0.038-0.062-0.11-0.024-0.162
				l0,0c0.038-0.051,0.11-0.062,0.162-0.025l6.34,4.674C137.087,82.219,137.098,82.291,137.06,82.343L137.06,82.343z"/>
			<path fill="#E3A37E" d="M136.491,83.067c-0.038,0.051-0.11,0.062-0.162,0.024l-6.34-4.674c-0.051-0.038-0.062-0.11-0.025-0.162
				l0,0c0.038-0.051,0.11-0.062,0.162-0.024l6.34,4.674C136.518,82.943,136.529,83.015,136.491,83.067L136.491,83.067z"/>
			<path fill="#E3A37E" d="M136,83.84c-0.038,0.051-0.11,0.062-0.162,0.024l-6.34-4.674c-0.051-0.038-0.062-0.11-0.025-0.162l0,0
				c0.038-0.051,0.11-0.062,0.162-0.024l6.34,4.674C136.027,83.716,136.038,83.789,136,83.84L136,83.84z"/>
		</g>
		<g>
			<path fill="#E3A37E" d="M104.088,106.713c-0.063-0.013-0.103-0.074-0.091-0.136l1.559-7.721c0.013-0.063,0.074-0.103,0.136-0.091
				l0,0c0.063,0.013,0.103,0.074,0.091,0.136l-1.559,7.721C104.212,106.685,104.151,106.725,104.088,106.713L104.088,106.713z"/>
			<path fill="#E3A37E" d="M103.18,106.595c-0.063-0.013-0.103-0.074-0.091-0.136l1.559-7.721c0.013-0.063,0.074-0.103,0.136-0.091
				l0,0c0.063,0.013,0.103,0.074,0.091,0.136l-1.559,7.721C103.304,106.567,103.242,106.607,103.18,106.595L103.18,106.595z"/>
			<path fill="#E3A37E" d="M102.283,106.384c-0.063-0.013-0.103-0.074-0.091-0.136l1.559-7.721c0.013-0.063,0.074-0.103,0.136-0.091
				l0,0c0.063,0.013,0.103,0.074,0.091,0.136l-1.559,7.721C102.407,106.356,102.346,106.397,102.283,106.384L102.283,106.384z"/>
			<path fill="#E3A37E" d="M101.375,106.266c-0.063-0.013-0.103-0.074-0.091-0.136l1.559-7.721c0.013-0.063,0.074-0.103,0.136-0.091
				l0,0c0.063,0.013,0.103,0.074,0.091,0.136l-1.559,7.721C101.499,106.238,101.438,106.279,101.375,106.266L101.375,106.266z"/>
		</g>
		<g>
			<path fill="#E3A37E" d="M149.014,97.72c-0.038,0.051-0.11,0.062-0.162,0.024l-6.34-4.674c-0.051-0.038-0.062-0.11-0.024-0.162
				l0,0c0.038-0.051,0.11-0.062,0.162-0.024l6.34,4.674C149.041,97.596,149.052,97.668,149.014,97.72L149.014,97.72z"/>
			<path fill="#E3A37E" d="M148.523,98.493c-0.038,0.051-0.11,0.062-0.162,0.024l-6.34-4.674c-0.051-0.038-0.062-0.11-0.025-0.162
				l0,0c0.038-0.051,0.11-0.062,0.162-0.024l6.34,4.674C148.55,98.369,148.561,98.442,148.523,98.493L148.523,98.493z"/>
			<path fill="#E3A37E" d="M147.954,99.217c-0.038,0.051-0.11,0.062-0.162,0.025l-6.34-4.674c-0.051-0.038-0.062-0.11-0.024-0.162
				l0,0c0.038-0.051,0.11-0.062,0.162-0.025l6.34,4.674C147.981,99.093,147.992,99.166,147.954,99.217L147.954,99.217z"/>
			<path fill="#E3A37E" d="M147.463,99.99c-0.038,0.051-0.11,0.062-0.162,0.025l-6.34-4.674c-0.051-0.038-0.062-0.11-0.024-0.162
				l0,0c0.038-0.051,0.11-0.062,0.162-0.024l6.34,4.674C147.49,99.866,147.501,99.939,147.463,99.99L147.463,99.99z"/>
		</g>
		<g>
			<path fill="#E3A37E" d="M158.935,115.123c-0.038,0.051-0.11,0.062-0.162,0.025l-6.34-4.674c-0.051-0.038-0.062-0.11-0.025-0.162
				l0,0c0.038-0.051,0.11-0.062,0.162-0.024l6.34,4.674C158.962,114.999,158.973,115.072,158.935,115.123L158.935,115.123z"/>
			<path fill="#E3A37E" d="M158.445,115.897c-0.038,0.051-0.11,0.062-0.162,0.024l-6.34-4.674c-0.051-0.038-0.062-0.11-0.025-0.162
				l0,0c0.038-0.051,0.11-0.062,0.162-0.024l6.34,4.674C158.472,115.773,158.483,115.845,158.445,115.897L158.445,115.897z"/>
			<path fill="#E3A37E" d="M157.875,116.62c-0.038,0.051-0.11,0.062-0.162,0.024l-6.34-4.674c-0.051-0.038-0.062-0.11-0.024-0.162
				l0,0c0.038-0.051,0.11-0.062,0.162-0.024l6.34,4.674C157.902,116.496,157.913,116.569,157.875,116.62L157.875,116.62z"/>
			<path fill="#E3A37E" d="M157.385,117.394c-0.038,0.051-0.11,0.062-0.162,0.025l-6.34-4.674c-0.051-0.038-0.062-0.11-0.025-0.162
				l0,0c0.038-0.051,0.11-0.062,0.162-0.025l6.34,4.674C157.412,117.27,157.423,117.342,157.385,117.394L157.385,117.394z"/>
		</g>
		<path fill="#C5C5C5" d="M173.352,135.381l-3.239-3.854l-6.598-7.851c-11.381,14.52-27.672,0.806-23.511-10.363
			c-7.73-2.227-12.195-9.476-9.944-15.861c-6.811-0.591-14.076-9.003-11.881-16.281c-8.653-0.417-18.399-10.29-9.458-22.694
			l-0.157-0.187c-2.629-3.129-4.138-7.007-4.373-11.025c-0.002-0.038-0.009-0.076-0.011-0.115
			c-5.056,12.384-16.062,21.5-29.195,24.161c1.954,0.408,3.82,1.131,5.539,2.119c1.889,1.085,3.6,2.492,5.032,4.197l6.066,7.218
			l19.009,5.104c10.765,2.89,12.955,16.215,5.468,23.177l29.768,36.156l4.476,5.437c5.34,6.354,14.819,7.176,21.173,1.836
			C177.868,151.213,178.69,141.735,173.352,135.381z M160.661,150.243c-3.407-0.295-5.931-3.298-5.635-6.706
			c0.295-3.407,3.298-5.93,6.705-5.635c3.408,0.296,5.931,3.298,5.635,6.705C167.07,148.016,164.069,150.539,160.661,150.243z"/>
		<path fill="#D9D9D9" d="M104.18,47.15c-0.063-1.197-0.018-2.406,0.152-3.611c1.214-8.633-1.1-17.726-7.151-24.925
			C89.075,8.968,76.466,5.342,65.016,8.222l18.432,21.934c-0.22,7.913-13.45,19.031-21.283,17.885L43.732,26.108
			c-4.808,10.784-3.407,23.828,4.7,33.475c6.05,7.199,14.608,11.044,23.322,11.335c1.095,0.036,2.174,0.173,3.231,0.394
			C88.118,68.65,99.124,59.534,104.18,47.15z"/>
		<circle fill="#D9D9D9" cx="161.331" cy="144.677" r="10.745"/>
		<polygon fill="#FFFFFF" points="154.769,145.839 157.044,139.575 163.605,138.413 167.892,143.515 165.618,149.778 
			159.056,150.94 		"/>
		<path fill="#B2B2B0" d="M101.743,54.252c1.11-2.276,1.915-4.62,2.448-6.987c-0.002-0.038-0.009-0.076-0.011-0.115
			c-5.056,12.384-16.062,21.5-29.195,24.161c1.954,0.408,3.82,1.131,5.539,2.119C89.438,70.574,97.432,63.089,101.743,54.252z"/>
	</g>
</g>
</svg>
